<mxfile host="app.diagrams.net" agent="Mozilla/5.0 (Windows NT 10.0; Win64; x64) AppleWebKit/537.36 (KHTML, like Gecko) Chrome/130.0.0.0 Safari/537.36" version="24.8.6">
  <diagram name="Page-1" id="4YSpm5ZrdWFzr7VjuStH">
    <mxGraphModel dx="1434" dy="780" grid="1" gridSize="10" guides="1" tooltips="1" connect="1" arrows="1" fold="1" page="1" pageScale="1" pageWidth="850" pageHeight="1100" math="0" shadow="0">
      <root>
        <mxCell id="0" />
        <mxCell id="1" parent="0" />
        <mxCell id="Ktk9CvPSsGRo4TtXuKc6-2" value="" style="verticalLabelPosition=bottom;sketch=0;html=1;fillColor=#282828;strokeColor=none;verticalAlign=top;pointerEvents=1;align=center;shape=mxgraph.cisco_safe.people_places_things_icons.icon9;" vertex="1" parent="1">
          <mxGeometry x="50" y="330" width="70" height="65" as="geometry" />
        </mxCell>
        <mxCell id="Ktk9CvPSsGRo4TtXuKc6-6" value="" style="endArrow=classic;html=1;rounded=0;" edge="1" parent="1">
          <mxGeometry width="50" height="50" relative="1" as="geometry">
            <mxPoint x="120" y="360" as="sourcePoint" />
            <mxPoint x="290" y="190" as="targetPoint" />
          </mxGeometry>
        </mxCell>
        <mxCell id="Ktk9CvPSsGRo4TtXuKc6-7" value="" style="whiteSpace=wrap;html=1;shape=mxgraph.basic.cloud_rect;fillColor=#FF8000;strokeColor=#d79b00;opacity=20;" vertex="1" parent="1">
          <mxGeometry x="210" y="80" width="620" height="450" as="geometry" />
        </mxCell>
        <mxCell id="Ktk9CvPSsGRo4TtXuKc6-11" value="" style="sketch=0;pointerEvents=1;shadow=0;dashed=0;html=1;strokeColor=none;fillColor=#434445;aspect=fixed;labelPosition=center;verticalLabelPosition=bottom;verticalAlign=top;align=center;outlineConnect=0;shape=mxgraph.vvd.web_browser;" vertex="1" parent="1">
          <mxGeometry x="249.66" y="140" width="132.67" height="94.2" as="geometry" />
        </mxCell>
        <mxCell id="Ktk9CvPSsGRo4TtXuKc6-12" value="&lt;h2 style=&quot;line-height: 120%;&quot;&gt;&lt;b&gt;&lt;font style=&quot;font-size: 16px;&quot;&gt;Route 53&lt;/font&gt;&lt;/b&gt;&lt;/h2&gt;" style="sketch=0;points=[[0,0,0],[0.25,0,0],[0.5,0,0],[0.75,0,0],[1,0,0],[0,1,0],[0.25,1,0],[0.5,1,0],[0.75,1,0],[1,1,0],[0,0.25,0],[0,0.5,0],[0,0.75,0],[1,0.25,0],[1,0.5,0],[1,0.75,0]];outlineConnect=0;fontColor=#232F3E;fillColor=#8C4FFF;strokeColor=#ffffff;dashed=0;verticalLabelPosition=bottom;verticalAlign=top;align=center;html=1;fontSize=12;fontStyle=0;aspect=fixed;shape=mxgraph.aws4.resourceIcon;resIcon=mxgraph.aws4.route_53;" vertex="1" parent="1">
          <mxGeometry x="277" y="350" width="78" height="78" as="geometry" />
        </mxCell>
        <mxCell id="Ktk9CvPSsGRo4TtXuKc6-13" value="&lt;h2&gt;&lt;font style=&quot;font-size: 16px;&quot;&gt;S3 Bucket&lt;/font&gt;&lt;/h2&gt;" style="sketch=0;points=[[0,0,0],[0.25,0,0],[0.5,0,0],[0.75,0,0],[1,0,0],[0,1,0],[0.25,1,0],[0.5,1,0],[0.75,1,0],[1,1,0],[0,0.25,0],[0,0.5,0],[0,0.75,0],[1,0.25,0],[1,0.5,0],[1,0.75,0]];outlineConnect=0;fontColor=#232F3E;fillColor=#7AA116;strokeColor=#ffffff;dashed=0;verticalLabelPosition=bottom;verticalAlign=top;align=center;html=1;fontSize=12;fontStyle=0;aspect=fixed;shape=mxgraph.aws4.resourceIcon;resIcon=mxgraph.aws4.s3;" vertex="1" parent="1">
          <mxGeometry x="690" y="350" width="78" height="78" as="geometry" />
        </mxCell>
        <mxCell id="Ktk9CvPSsGRo4TtXuKc6-14" value="&lt;h2&gt;&lt;font style=&quot;font-size: 16px;&quot;&gt;CloudFront&lt;/font&gt;&lt;/h2&gt;" style="sketch=0;points=[[0,0,0],[0.25,0,0],[0.5,0,0],[0.75,0,0],[1,0,0],[0,1,0],[0.25,1,0],[0.5,1,0],[0.75,1,0],[1,1,0],[0,0.25,0],[0,0.5,0],[0,0.75,0],[1,0.25,0],[1,0.5,0],[1,0.75,0]];outlineConnect=0;fontColor=#232F3E;fillColor=#8C4FFF;strokeColor=#ffffff;dashed=0;verticalLabelPosition=bottom;verticalAlign=top;align=center;html=1;fontSize=12;fontStyle=0;aspect=fixed;shape=mxgraph.aws4.resourceIcon;resIcon=mxgraph.aws4.cloudfront;" vertex="1" parent="1">
          <mxGeometry x="481" y="350" width="78" height="78" as="geometry" />
        </mxCell>
        <mxCell id="Ktk9CvPSsGRo4TtXuKc6-22" value="" style="html=1;shadow=0;dashed=0;align=center;verticalAlign=middle;shape=mxgraph.arrows2.arrow;dy=0.63;dx=36;notch=0;" vertex="1" parent="1">
          <mxGeometry x="380" y="365" width="70" height="48" as="geometry" />
        </mxCell>
        <mxCell id="Ktk9CvPSsGRo4TtXuKc6-24" value="" style="html=1;shadow=0;dashed=0;align=center;verticalAlign=middle;shape=mxgraph.arrows2.arrow;dy=0.63;dx=36;notch=0;" vertex="1" parent="1">
          <mxGeometry x="590" y="365" width="70" height="48" as="geometry" />
        </mxCell>
        <mxCell id="Ktk9CvPSsGRo4TtXuKc6-26" value="" style="html=1;shadow=0;dashed=0;align=center;verticalAlign=middle;shape=mxgraph.arrows2.arrow;dy=0.63;dx=36;notch=0;rotation=90;" vertex="1" parent="1">
          <mxGeometry x="281" y="270" width="70" height="48" as="geometry" />
        </mxCell>
        <mxCell id="Ktk9CvPSsGRo4TtXuKc6-29" value="" style="html=1;shadow=0;dashed=1;align=center;verticalAlign=middle;shape=mxgraph.arrows2.arrow;dy=0.63;dx=36;notch=0;" vertex="1" parent="1">
          <mxGeometry x="410" y="140" width="70" height="40" as="geometry" />
        </mxCell>
        <mxCell id="Ktk9CvPSsGRo4TtXuKc6-31" value="" style="html=1;shadow=0;dashed=1;align=center;verticalAlign=middle;shape=mxgraph.arrows2.arrow;dy=0.63;dx=36;notch=0;rotation=-180;" vertex="1" parent="1">
          <mxGeometry x="410" y="190" width="70" height="40" as="geometry" />
        </mxCell>
        <mxCell id="Ktk9CvPSsGRo4TtXuKc6-32" value="&lt;h2 style=&quot;font-size: 16px;&quot;&gt;Lambda&amp;nbsp;&lt;span style=&quot;background-color: initial;&quot;&gt;Function&lt;/span&gt;&lt;/h2&gt;" style="sketch=0;outlineConnect=0;fontColor=#232F3E;gradientColor=none;fillColor=#ED7100;strokeColor=none;dashed=0;verticalLabelPosition=bottom;verticalAlign=top;align=center;html=1;fontSize=12;fontStyle=0;aspect=fixed;pointerEvents=1;shape=mxgraph.aws4.lambda_function;" vertex="1" parent="1">
          <mxGeometry x="500" y="150" width="71.1" height="71.1" as="geometry" />
        </mxCell>
        <mxCell id="Ktk9CvPSsGRo4TtXuKc6-33" value="" style="html=1;shadow=0;dashed=1;align=center;verticalAlign=middle;shape=mxgraph.arrows2.arrow;dy=0.63;dx=36;notch=0;" vertex="1" parent="1">
          <mxGeometry x="590" y="140" width="70" height="40" as="geometry" />
        </mxCell>
        <mxCell id="Ktk9CvPSsGRo4TtXuKc6-34" value="" style="html=1;shadow=0;dashed=1;align=center;verticalAlign=middle;shape=mxgraph.arrows2.arrow;dy=0.63;dx=36;notch=0;rotation=-180;" vertex="1" parent="1">
          <mxGeometry x="590" y="190" width="70" height="40" as="geometry" />
        </mxCell>
        <mxCell id="Ktk9CvPSsGRo4TtXuKc6-35" value="&lt;h2&gt;&lt;b&gt;&lt;font style=&quot;font-size: 16px;&quot;&gt;DynamoDB&lt;/font&gt;&lt;/b&gt;&lt;/h2&gt;" style="sketch=0;points=[[0,0,0],[0.25,0,0],[0.5,0,0],[0.75,0,0],[1,0,0],[0,1,0],[0.25,1,0],[0.5,1,0],[0.75,1,0],[1,1,0],[0,0.25,0],[0,0.5,0],[0,0.75,0],[1,0.25,0],[1,0.5,0],[1,0.75,0]];outlineConnect=0;fontColor=#232F3E;fillColor=#C925D1;strokeColor=#ffffff;dashed=0;verticalLabelPosition=bottom;verticalAlign=top;align=center;html=1;fontSize=12;fontStyle=0;aspect=fixed;shape=mxgraph.aws4.resourceIcon;resIcon=mxgraph.aws4.dynamodb;" vertex="1" parent="1">
          <mxGeometry x="690" y="150" width="71.1" height="71.1" as="geometry" />
        </mxCell>
        <mxCell id="Ktk9CvPSsGRo4TtXuKc6-36" value="&lt;h3&gt;https://ibrahimali.org&lt;/h3&gt;" style="text;html=1;align=center;verticalAlign=middle;whiteSpace=wrap;rounded=0;" vertex="1" parent="1">
          <mxGeometry x="286" y="110" width="60" height="30" as="geometry" />
        </mxCell>
      </root>
    </mxGraphModel>
  </diagram>
</mxfile>
